<svg width="17" height="17" viewBox="0 0 17 17" fill="none" xmlns="http://www.w3.org/2000/svg">
<g clip-path="url(#clip0_99_12839)">
<path d="M8.78965 4.12586L6.78986 6.0822C6.52426 6.34785 6.37505 6.7081 6.37505 7.08374C6.37505 7.45937 6.52426 7.81963 6.78986 8.08528C7.05555 8.35085 7.41585 8.50004 7.79153 8.50004C8.1672 8.50004 8.5275 8.35085 8.79319 8.08528L10.0045 6.87408C10.1631 6.71549 10.3513 6.58969 10.5585 6.50385C10.7657 6.41802 10.9877 6.37384 11.212 6.37384C11.4362 6.37384 11.6583 6.41802 11.8655 6.50385C12.0727 6.58969 12.2609 6.71549 12.4194 6.87408L13.7519 8.20711C14.0175 8.47276 14.1667 8.83302 14.1667 9.20865C14.1667 9.58428 14.0175 9.94454 13.7519 10.2102C14.8754 9.08682 15.5838 8.14619 15.5838 6.72959C15.5838 5.94139 15.3447 5.17173 14.898 4.52227C14.4513 3.87281 13.8181 3.37411 13.0821 3.09202C12.346 2.80993 11.5416 2.75773 10.7753 2.94232C10.0089 3.1269 9.31653 3.53958 8.78965 4.12586ZM13.7519 10.2102C13.6122 10.3499 13.4463 10.4607 13.2638 10.5364C13.0812 10.612 12.8855 10.6509 12.6879 10.6509C12.4903 10.6509 12.2946 10.612 12.1121 10.5364C11.9295 10.4607 11.7636 10.3499 11.6239 10.2102C11.7752 10.347 11.8971 10.5131 11.9822 10.6984C12.0673 10.8837 12.1138 11.0844 12.1189 11.2883C12.124 11.4921 12.0876 11.6949 12.012 11.8843C11.9363 12.0737 11.8229 12.2457 11.6787 12.3899C11.5345 12.5341 11.3624 12.6474 11.173 12.7231C10.9837 12.7988 10.7809 12.8352 10.577 12.83C10.3731 12.8249 10.1724 12.7784 9.98701 12.6933C9.80166 12.6082 9.63554 12.4864 9.49875 12.3351C9.63858 12.4744 9.74959 12.6398 9.82542 12.8221C9.90126 13.0043 9.94042 13.1996 9.94069 13.397C9.94095 13.5943 9.9023 13.7898 9.82696 13.9722C9.75161 14.1546 9.64104 14.3204 9.50158 14.46C9.36697 14.5947 9.2066 14.7008 9.03005 14.7721C8.8535 14.8433 8.66439 14.8783 8.47403 14.8749C8.28366 14.8714 8.09594 14.8296 7.92208 14.752C7.74822 14.6744 7.59178 14.5626 7.46212 14.4232L3.54119 10.6253C2.4786 9.5628 1.41602 8.35868 1.41602 6.72959C1.41617 5.94145 1.65541 5.17189 2.10213 4.52254C2.54885 3.8732 3.18205 3.3746 3.9181 3.0926C4.65415 2.8106 5.45844 2.75846 6.22475 2.94306C6.99106 3.12767 7.68334 3.54034 8.21018 4.12657C8.28895 4.19976 8.39253 4.24038 8.50005 4.24025C8.60758 4.24012 8.71106 4.19924 8.78965 4.12586" stroke="#0049BC" stroke-width="2" stroke-linecap="round"/>
</g>
<defs>
<clipPath id="clip0_99_12839">
<rect width="17" height="17" fill="white"/>
</clipPath>
</defs>
</svg>
